# xmcd
# 
# Track frame offsets:
#     150
#     17985
#     34902
#     51305
#     67735
#     86282
#     104070
#     118795
#     131960
#     164012
#     177320
#     194602
#     205815
# 
# Disc length: 2944
# 
# Revision: 4
# Processed by: cddbd v1.5.2PL0 Copyright (c) Steve Scherf et al.
# Submitted via: fre:ac v1.0.17
# 
DISCID=c30b7e0d
DTITLE=Carpenters - Yesterday Once More Disc 1
DYEAR=1985
DGENRE=Easy Listening
TTITLE0=Yesterday Once More
TTITLE1=Superstar
TTITLE2=Rainy Days And Monday
TTITLE3=Back In My Life Again
TTITLE4=Ticket To Ride
TTITLE5=Goodbye To Love
TTITLE6=Bless The Beasts And Children(From the Columbia Picture release "Bless The Beasts And Children".
TTITLE7=It's Going To Take Some Time
TTITLE8=Calling Occupants Of Interplanetary Craft
TTITLE9=Sweet, Sweet Smile
TTITLE10=I Won't Last A Day Without You
TTITLE11=For All We Know
TTITLE12=Touch Me When We're Dancing
EXTD=YEAR: 1985
EXTT0=
EXTT1=
EXTT2=
EXTT3=
EXTT4=
EXTT5=
EXTT6=
EXTT7=
EXTT8=
EXTT9=
EXTT10=
EXTT11=
EXTT12=
PLAYORDER=
